<?xml version="1.0" encoding="UTF-8" standalone="no"?>
<!DOCTYPE svg PUBLIC "-//W3C//DTD SVG 1.1//EN"
 "http://www.w3.org/Graphics/SVG/1.1/DTD/svg11.dtd">
<!-- Generated by graphviz version 5.0.0 (20220707.1540)
 -->
<!-- Title: dependencies Pages: 1 -->
<svg width="611pt" height="174pt"
 viewBox="0.00 0.00 611.00 173.80" xmlns="http://www.w3.org/2000/svg" xmlns:xlink="http://www.w3.org/1999/xlink">
<g id="graph0" class="graph" transform="scale(1 1) rotate(0) translate(4 169.8)">
<title>dependencies</title>
<polygon fill="white" stroke="transparent" points="-4,4 -4,-169.8 607,-169.8 607,4 -4,4"/>
<text text-anchor="middle" x="301.5" y="-8.2" font-family="sans-serif" font-size="14.00">dependencies</text>
<g id="clust1" class="cluster">
<title>cluster_AppModule</title>
<polygon fill="none" stroke="black" stroke-dasharray="1,5" points="8,-32.8 8,-157.8 595,-157.8 595,-32.8 8,-32.8"/>
</g>
<g id="clust6" class="cluster">
<title>cluster_AppModule_providers</title>
<polygon fill="none" stroke="black" points="457,-40.8 457,-92.8 587,-92.8 587,-40.8 457,-40.8"/>
</g>
<g id="clust3" class="cluster">
<title>cluster_AppModule_imports</title>
<polygon fill="none" stroke="black" points="16,-40.8 16,-92.8 449,-92.8 449,-40.8 16,-40.8"/>
</g>
<!-- ArticleModule -->
<g id="node1" class="node">
<title>ArticleModule</title>
<polygon fill="#8dd3c7" stroke="black" points="441.42,-84.8 438.42,-88.8 417.42,-88.8 414.42,-84.8 342.58,-84.8 342.58,-48.8 441.42,-48.8 441.42,-84.8"/>
<text text-anchor="middle" x="392" y="-62.6" font-family="Times,serif" font-size="14.00">ArticleModule</text>
</g>
<!-- AppModule -->
<g id="node5" class="node">
<title>AppModule</title>
<polygon fill="#8dd3c7" stroke="black" points="317.66,-149.8 314.66,-153.8 293.66,-153.8 290.66,-149.8 234.34,-149.8 234.34,-113.8 317.66,-113.8 317.66,-149.8"/>
<text text-anchor="middle" x="276" y="-127.6" font-family="Times,serif" font-size="14.00">AppModule</text>
</g>
<!-- ArticleModule&#45;&gt;AppModule -->
<g id="edge1" class="edge">
<title>ArticleModule&#45;&gt;AppModule</title>
<path fill="none" stroke="black" d="M392,-84.82C392,-102.17 392,-125.8 392,-125.8 392,-125.8 327.88,-125.8 327.88,-125.8"/>
<polygon fill="black" stroke="black" points="327.88,-122.3 317.88,-125.8 327.88,-129.3 327.88,-122.3"/>
</g>
<!-- ProfileModule -->
<g id="node2" class="node">
<title>ProfileModule</title>
<polygon fill="#8dd3c7" stroke="black" points="324.66,-84.8 321.66,-88.8 300.66,-88.8 297.66,-84.8 227.34,-84.8 227.34,-48.8 324.66,-48.8 324.66,-84.8"/>
<text text-anchor="middle" x="276" y="-62.6" font-family="Times,serif" font-size="14.00">ProfileModule</text>
</g>
<!-- ProfileModule&#45;&gt;AppModule -->
<g id="edge2" class="edge">
<title>ProfileModule&#45;&gt;AppModule</title>
<path fill="none" stroke="black" d="M276,-84.91C276,-84.91 276,-103.79 276,-103.79"/>
<polygon fill="black" stroke="black" points="272.5,-103.79 276,-113.79 279.5,-103.79 272.5,-103.79"/>
</g>
<!-- TagModule -->
<g id="node3" class="node">
<title>TagModule</title>
<polygon fill="#8dd3c7" stroke="black" points="209.82,-84.8 206.82,-88.8 185.82,-88.8 182.82,-84.8 128.18,-84.8 128.18,-48.8 209.82,-48.8 209.82,-84.8"/>
<text text-anchor="middle" x="169" y="-62.6" font-family="Times,serif" font-size="14.00">TagModule</text>
</g>
<!-- TagModule&#45;&gt;AppModule -->
<g id="edge3" class="edge">
<title>TagModule&#45;&gt;AppModule</title>
<path fill="none" stroke="black" d="M169,-84.82C169,-102.17 169,-125.8 169,-125.8 169,-125.8 224.32,-125.8 224.32,-125.8"/>
<polygon fill="black" stroke="black" points="224.32,-129.3 234.32,-125.8 224.32,-122.3 224.32,-129.3"/>
</g>
<!-- UserModule -->
<g id="node4" class="node">
<title>UserModule</title>
<polygon fill="#8dd3c7" stroke="black" points="109.99,-84.8 106.99,-88.8 85.99,-88.8 82.99,-84.8 24.01,-84.8 24.01,-48.8 109.99,-48.8 109.99,-84.8"/>
<text text-anchor="middle" x="67" y="-62.6" font-family="Times,serif" font-size="14.00">UserModule</text>
</g>
<!-- UserModule&#45;&gt;AppModule -->
<g id="edge4" class="edge">
<title>UserModule&#45;&gt;AppModule</title>
<path fill="none" stroke="black" d="M67,-85.08C67,-106.12 67,-137.8 67,-137.8 67,-137.8 224.21,-137.8 224.21,-137.8"/>
<polygon fill="black" stroke="black" points="224.21,-141.3 234.21,-137.8 224.21,-134.3 224.21,-141.3"/>
</g>
<!-- AppService -->
<g id="node6" class="node">
<title>AppService</title>
<ellipse fill="#fdb462" stroke="black" cx="522" cy="-66.8" rx="56.75" ry="18"/>
<text text-anchor="middle" x="522" y="-62.6" font-family="Times,serif" font-size="14.00">AppService</text>
</g>
<!-- AppService&#45;&gt;AppModule -->
<g id="edge5" class="edge">
<title>AppService&#45;&gt;AppModule</title>
<path fill="none" stroke="black" d="M522,-85.08C522,-106.12 522,-137.8 522,-137.8 522,-137.8 327.73,-137.8 327.73,-137.8"/>
<polygon fill="black" stroke="black" points="327.73,-134.3 317.73,-137.8 327.73,-141.3 327.73,-134.3"/>
</g>
</g>
</svg>
